<svg width="25" height="24" viewBox="0 0 25 24" fill="none" xmlns="http://www.w3.org/2000/svg">
<path d="M19.8531 5.33005C18.5231 4.71005 17.0831 4.26005 15.5831 4.00005C15.57 3.99963 15.5569 4.00209 15.5448 4.00728C15.5327 4.01246 15.5219 4.02023 15.5131 4.03005C15.3331 4.36005 15.1231 4.79005 14.9831 5.12005C13.3921 4.88005 11.7741 4.88005 10.1831 5.12005C10.0431 4.78005 9.83313 4.36005 9.64313 4.03005C9.63313 4.01005 9.60312 4.00005 9.57312 4.00005C8.07312 4.26005 6.64312 4.71005 5.30312 5.33005C5.29312 5.33005 5.28313 5.34005 5.27313 5.35005C2.55313 9.42005 1.80313 13.38 2.17313 17.3C2.17313 17.32 2.18313 17.34 2.20313 17.35C4.00312 18.67 5.73313 19.47 7.44313 20C7.47313 20.01 7.50312 20 7.51312 19.98C7.91312 19.43 8.27313 18.85 8.58313 18.24C8.60313 18.2 8.58313 18.16 8.54313 18.15C7.97313 17.93 7.43313 17.67 6.90313 17.37C6.86313 17.35 6.86313 17.29 6.89313 17.26C7.00313 17.18 7.11312 17.09 7.22312 17.01C7.24312 16.99 7.27313 16.99 7.29313 17C10.7331 18.57 14.4431 18.57 17.8431 17C17.8631 16.99 17.8931 16.99 17.9131 17.01C18.0231 17.1 18.1331 17.18 18.2431 17.27C18.2831 17.3 18.2831 17.36 18.2331 17.38C17.7131 17.69 17.1631 17.94 16.5931 18.16C16.5531 18.17 16.5431 18.22 16.5531 18.25C16.8731 18.86 17.2331 19.44 17.6231 19.99C17.6531 20 17.6831 20.01 17.7131 20C19.4331 19.47 21.1631 18.67 22.9631 17.35C22.9831 17.34 22.9931 17.32 22.9931 17.3C23.4331 12.77 22.2631 8.84005 19.8931 5.35005C19.8831 5.34005 19.8731 5.33005 19.8531 5.33005ZM9.10313 14.91C8.07313 14.91 7.21313 13.96 7.21313 12.79C7.21313 11.62 8.05313 10.67 9.10313 10.67C10.1631 10.67 11.0031 11.63 10.9931 12.79C10.9931 13.96 10.1531 14.91 9.10313 14.91ZM16.0731 14.91C15.0431 14.91 14.1831 13.96 14.1831 12.79C14.1831 11.62 15.0231 10.67 16.0731 10.67C17.1331 10.67 17.9731 11.63 17.9631 12.79C17.9631 13.96 17.1331 14.91 16.0731 14.91Z" fill="white"/>
</svg>
