<svg width="255" height="84" viewBox="0 0 255 84" fill="none" xmlns="http://www.w3.org/2000/svg">
<g filter="url(#filter0_d_224_16538)">
<path fill-rule="evenodd" clip-rule="evenodd" d="M59.0259 42.7981V34H61.8622V42.7981H59.0259ZM56.4529 42.7981V37.0082C56.4529 36.4639 56.3169 35.9696 56.0447 35.5256C55.7725 35.0672 55.4072 34.7019 54.9488 34.4297C54.4904 34.1576 53.9891 34.0215 53.4447 34.0215H43.9689C43.4246 34.0215 42.9232 34.1576 42.4648 34.4297C42.0208 34.7019 41.6627 35.0672 41.3905 35.5256C41.1183 35.9696 40.9822 36.4639 40.9822 37.0082V42.7981H56.4529ZM38.4707 42.7981V40.7255H32.1105V42.7981H38.4707ZM35.6129 45.6906H38.4707V46.5055C38.4707 47.0498 38.3346 47.5512 38.0624 48.0096C37.7903 48.4536 37.425 48.8118 36.9666 49.0839C36.5082 49.3561 36.0068 49.4922 35.4625 49.4922H25.9867C25.4424 49.4922 24.941 49.3561 24.4826 49.0839C24.0385 48.8118 23.6804 48.4536 23.4083 48.0096C23.1361 47.5512 23 47.0498 23 46.5055V45.6906H25.8363V46.3766C25.8363 46.4482 25.8578 46.5126 25.9008 46.5699C25.9581 46.6129 26.0225 46.6344 26.0941 46.6344H35.3336C35.4052 46.6344 35.4697 46.6129 35.527 46.5699C35.5843 46.5126 35.6129 46.4482 35.6129 46.3766V45.6906ZM25.8363 42.7981V37.1371C25.8363 37.0655 25.8578 37.0082 25.9008 36.9652C25.9581 36.9079 26.0225 36.8793 26.0941 36.8793H35.3336C35.4052 36.8793 35.4697 36.9079 35.527 36.9652C35.5843 37.0082 35.6129 37.0655 35.6129 37.1371V38.2115H38.4707V37.0082C38.4707 36.4639 38.3346 35.9696 38.0624 35.5256C37.7903 35.0672 37.425 34.7019 36.9666 34.4297C36.5082 34.1576 36.0068 34.0215 35.4625 34.0215H25.9867C25.4424 34.0215 24.941 34.1576 24.4826 34.4297C24.0385 34.7019 23.6804 35.0672 23.4083 35.5256C23.1361 35.9696 23 36.4639 23 37.0082V42.7981H25.8363ZM40.9822 45.6906H43.8185V49.4922H40.9822V45.6906ZM53.5952 45.6906H56.4529V49.4922H53.5952V45.6906ZM59.0259 45.6906H61.8622V46.6344H74.4966V49.4922H59.0259V45.6906ZM75.8955 45.6906V49.4922H78.7318V45.6906H75.8955ZM88.5084 45.6906V49.4922H91.3662V45.6906H88.5084ZM96.2253 45.6906L93.7028 48.6972V49.4922H96.7755L99.9807 45.6906H96.2253ZM102.81 45.6906L106.015 49.4922H109.109V48.6757L106.588 45.6906H102.81ZM104.144 42.7981H98.6522L99.5258 41.7568L93.7028 34.8165V34.0215H96.7755L101.417 39.5222L106.015 34.0215H109.109V34.8165L103.265 41.7568L104.144 42.7981ZM117.475 45.6906V49.4922H120.332V45.6906H117.475ZM121.007 42.7981H116.816L110.341 34.0215H113.693L118.914 40.575L124.071 34.0215H127.488L121.007 42.7981ZM134.417 45.6906V49.4922H137.274V45.6906H134.417ZM137.274 42.7981H134.417V36.8793H128.099V34.0215H143.57V36.8793H137.274V42.7981ZM145.302 45.6906V49.4922H148.138V45.6906H145.302ZM158.28 45.6906V49.4922H161.116V45.6906H158.28ZM161.116 42.7981H145.302V34.0215H148.138V40.3172H158.28V34.0215H161.116V42.7981ZM163.66 45.6906V49.4922H166.497V45.6906H163.66ZM172.809 45.6906L175.994 49.4922H179.088V48.6972L176.542 45.6906H172.809ZM178.664 42.7981H163.66V34.043H176.123C176.667 34.043 177.169 34.1791 177.627 34.4512C178.085 34.7234 178.451 35.0887 178.723 35.5471C178.995 35.9911 179.131 36.4853 179.131 37.0297V41.1982C179.131 41.7425 178.995 42.2439 178.723 42.7023C178.704 42.7347 178.684 42.7666 178.664 42.7981ZM181.452 45.6906V46.5055C181.452 47.0498 181.588 47.5512 181.86 48.0096C182.132 48.4536 182.49 48.8118 182.934 49.0839C183.393 49.3561 183.894 49.4922 184.438 49.4922H193.936C194.48 49.4922 194.974 49.3561 195.418 49.0839C195.877 48.8118 196.242 48.4536 196.514 48.0096C196.786 47.5512 196.922 47.0498 196.922 46.5055V45.6906H194.065V46.3766C194.065 46.4482 194.036 46.5126 193.979 46.5699C193.921 46.6129 193.857 46.6344 193.785 46.6344H184.546C184.474 46.6344 184.41 46.6129 184.352 46.5699C184.31 46.5126 184.288 46.4482 184.288 46.3766V45.6906H181.452ZM184.288 42.7981H181.452V37.0082C181.452 36.4639 181.588 35.9696 181.86 35.5256C182.132 35.0672 182.49 34.7019 182.934 34.4297C183.393 34.1576 183.894 34.0215 184.438 34.0215H193.936C194.48 34.0215 194.974 34.1576 195.418 34.4297C195.877 34.7019 196.242 35.0672 196.514 35.5256C196.786 35.9696 196.922 36.4639 196.922 37.0082V42.7981H194.065V37.1371C194.065 37.0655 194.036 37.0082 193.979 36.9652C193.921 36.9079 193.857 36.8793 193.785 36.8793H184.546C184.474 36.8793 184.41 36.9079 184.352 36.9652C184.31 37.0082 184.288 37.0655 184.288 37.1371V42.7981ZM199.392 45.6906V49.4922H202.228V45.6906H199.392ZM202.228 42.7981H199.392V34.0215H202.508L209.883 42.7981H206.12L202.228 38.1685V42.7981ZM208.551 45.6906L211.747 49.4922H214.863V45.6906H208.551ZM217.416 45.6906V49.4922H231.662V46.6344H220.274V45.6906H217.416ZM229.427 42.7981H217.416V34.0215H231.662V36.8793H220.274V40.3172H229.427V42.7981ZM214.863 42.7981H212.005V34.0215H214.863V42.7981ZM91.3662 42.7981H75.8955V37.0082C75.8955 36.4639 76.0316 35.9696 76.3038 35.5256C76.5759 35.0672 76.9341 34.7019 77.3781 34.4297C77.8365 34.1576 78.3379 34.0215 78.8822 34.0215H88.358C88.9024 34.0215 89.4037 34.1576 89.8621 34.4297C90.3205 34.7019 90.6858 35.0672 90.958 35.5256C91.2301 35.9696 91.3662 36.4639 91.3662 37.0082V42.7981ZM53.5952 41.456H43.8185V37.1371C43.8185 37.0655 43.84 37.0082 43.883 36.9652C43.9403 36.9079 44.0048 36.8793 44.0764 36.8793H53.3158C53.3874 36.8793 53.4519 36.9079 53.5092 36.9652C53.5665 37.0082 53.5952 37.0655 53.5952 37.1371V41.456ZM88.5084 41.456H78.7318V37.1371C78.7318 37.0655 78.7533 37.0082 78.7963 36.9652C78.8536 36.9079 78.918 36.8793 78.9897 36.8793H88.2291C88.3007 36.8793 88.3652 36.9079 88.4225 36.9652C88.4798 37.0082 88.5084 37.0655 88.5084 37.1371V41.456ZM166.754 41.3271H175.994C176.066 41.3271 176.13 41.3056 176.187 41.2626C176.245 41.2197 176.273 41.1624 176.273 41.0907V37.1371C176.273 37.0655 176.245 37.0082 176.187 36.9652C176.13 36.9079 176.066 36.8793 175.994 36.8793H166.754C166.683 36.8793 166.618 36.9079 166.561 36.9652C166.518 37.0082 166.497 37.0655 166.497 37.1371V41.0907C166.497 41.1624 166.518 41.2197 166.561 41.2626C166.618 41.3056 166.683 41.3271 166.754 41.3271Z" fill="url(#paint0_linear_224_16538)"/>
</g>
<defs>
<filter id="filter0_d_224_16538" x="-47" y="-36" width="348.662" height="155.492" filterUnits="userSpaceOnUse" color-interpolation-filters="sRGB">
<feFlood flood-opacity="0" result="BackgroundImageFix"/>
<feColorMatrix in="SourceAlpha" type="matrix" values="0 0 0 0 0 0 0 0 0 0 0 0 0 0 0 0 0 0 127 0" result="hardAlpha"/>
<feOffset/>
<feGaussianBlur stdDeviation="35"/>
<feComposite in2="hardAlpha" operator="out"/>
<feColorMatrix type="matrix" values="0 0 0 0 1 0 0 0 0 1 0 0 0 0 1 0 0 0 0.58 0"/>
<feBlend mode="normal" in2="BackgroundImageFix" result="effect1_dropShadow_224_16538"/>
<feBlend mode="normal" in="SourceGraphic" in2="effect1_dropShadow_224_16538" result="shape"/>
</filter>
<linearGradient id="paint0_linear_224_16538" x1="127.579" y1="33.3769" x2="127.373" y2="54.8639" gradientUnits="userSpaceOnUse">
<stop/>
<stop offset="1"/>
</linearGradient>
</defs>
</svg>
