<svg width="25" height="24" viewBox="0 0 25 24" fill="none" xmlns="http://www.w3.org/2000/svg">
<path d="M22.8765 6C22.1065 6.35 21.2765 6.58 20.4165 6.69C21.2965 6.16 21.9765 5.32 22.2965 4.31C21.4665 4.81 20.5465 5.16 19.5765 5.36C18.7865 4.5 17.6765 4 16.4165 4C14.0665 4 12.1465 5.92 12.1465 8.29C12.1465 8.63 12.1865 8.96 12.2565 9.27C8.69654 9.09 5.52654 7.38 3.41654 4.79C3.04654 5.42 2.83654 6.16 2.83654 6.94C2.83654 8.43 3.58654 9.75 4.74654 10.5C4.03654 10.5 3.37654 10.3 2.79654 10V10.03C2.79654 12.11 4.27654 13.85 6.23654 14.24C5.60727 14.4122 4.94664 14.4362 4.30654 14.31C4.57815 15.1625 5.11008 15.9084 5.82756 16.4429C6.54504 16.9775 7.41199 17.2737 8.30654 17.29C6.79017 18.4904 4.91054 19.1393 2.97654 19.13C2.63654 19.13 2.29654 19.11 1.95654 19.07C3.85654 20.29 6.11654 21 8.53654 21C16.4165 21 20.7465 14.46 20.7465 8.79C20.7465 8.6 20.7465 8.42 20.7365 8.23C21.5765 7.63 22.2965 6.87 22.8765 6Z" fill="white"/>
</svg>
